<mxfile host="app.diagrams.net" modified="2024-03-13T20:19:29.124Z" agent="Mozilla/5.0 (Windows NT 10.0; Win64; x64) AppleWebKit/537.36 (KHTML, like Gecko) Chrome/121.0.0.0 Safari/537.36 OPR/107.0.0.0" etag="mAPa-uxAe5-mup1CWPi-" version="24.0.5" type="device">
  <diagram name="PÃ¡gina-1" id="xhuxKMUbzUwI4tB9ox7t">
    <mxGraphModel dx="663" dy="361" grid="1" gridSize="10" guides="1" tooltips="1" connect="1" arrows="1" fold="1" page="1" pageScale="1" pageWidth="827" pageHeight="1169" math="0" shadow="0">
      <root>
        <mxCell id="0" />
        <mxCell id="1" parent="0" />
        <mxCell id="g7VYItSPCgf-Q1t-3pjP-21" style="edgeStyle=orthogonalEdgeStyle;rounded=0;orthogonalLoop=1;jettySize=auto;html=1;entryX=0;entryY=0.5;entryDx=0;entryDy=0;endArrow=none;endFill=0;" edge="1" parent="1" source="Wooe7v1hkpALqK79m0Qg-2" target="Wooe7v1hkpALqK79m0Qg-72">
          <mxGeometry relative="1" as="geometry">
            <mxPoint x="280" y="330" as="targetPoint" />
          </mxGeometry>
        </mxCell>
        <mxCell id="Wooe7v1hkpALqK79m0Qg-2" value="Aluno" style="rounded=0;whiteSpace=wrap;html=1;" parent="1" vertex="1">
          <mxGeometry x="118" y="310" width="120" height="40" as="geometry" />
        </mxCell>
        <mxCell id="Wooe7v1hkpALqK79m0Qg-3" value="" style="ellipse;whiteSpace=wrap;html=1;aspect=fixed;fillColor=#dae8fc;strokeColor=#6c8ebf;" parent="1" vertex="1">
          <mxGeometry x="115" y="280" width="10" height="10" as="geometry" />
        </mxCell>
        <mxCell id="Wooe7v1hkpALqK79m0Qg-4" value="" style="ellipse;whiteSpace=wrap;html=1;aspect=fixed;fillColor=#dae8fc;strokeColor=#6c8ebf;" parent="1" vertex="1">
          <mxGeometry x="145" y="280" width="10" height="10" as="geometry" />
        </mxCell>
        <mxCell id="Wooe7v1hkpALqK79m0Qg-5" value="" style="ellipse;whiteSpace=wrap;html=1;aspect=fixed;fillColor=#dae8fc;strokeColor=#6c8ebf;" parent="1" vertex="1">
          <mxGeometry x="195" y="280" width="10" height="10" as="geometry" />
        </mxCell>
        <mxCell id="Wooe7v1hkpALqK79m0Qg-6" value="" style="ellipse;whiteSpace=wrap;html=1;aspect=fixed;fillColor=#f8cecc;strokeColor=#b85450;" parent="1" vertex="1">
          <mxGeometry x="225" y="280" width="10" height="10" as="geometry" />
        </mxCell>
        <mxCell id="Wooe7v1hkpALqK79m0Qg-7" style="edgeStyle=orthogonalEdgeStyle;rounded=0;orthogonalLoop=1;jettySize=auto;html=1;entryX=0.5;entryY=0;entryDx=0;entryDy=0;endArrow=none;endFill=0;" parent="1" source="Wooe7v1hkpALqK79m0Qg-8" target="Wooe7v1hkpALqK79m0Qg-2" edge="1">
          <mxGeometry relative="1" as="geometry" />
        </mxCell>
        <mxCell id="Wooe7v1hkpALqK79m0Qg-8" value="" style="ellipse;whiteSpace=wrap;html=1;aspect=fixed;fillColor=#dae8fc;strokeColor=#6c8ebf;" parent="1" vertex="1">
          <mxGeometry x="170" y="280" width="10" height="10" as="geometry" />
        </mxCell>
        <mxCell id="Wooe7v1hkpALqK79m0Qg-9" style="edgeStyle=orthogonalEdgeStyle;rounded=0;orthogonalLoop=1;jettySize=auto;html=1;endArrow=none;endFill=0;" parent="1" source="Wooe7v1hkpALqK79m0Qg-5" edge="1">
          <mxGeometry relative="1" as="geometry">
            <mxPoint x="200" y="310" as="targetPoint" />
          </mxGeometry>
        </mxCell>
        <mxCell id="Wooe7v1hkpALqK79m0Qg-10" style="edgeStyle=orthogonalEdgeStyle;rounded=0;orthogonalLoop=1;jettySize=auto;html=1;entryX=0.953;entryY=-0.001;entryDx=0;entryDy=0;entryPerimeter=0;endArrow=none;endFill=0;" parent="1" source="Wooe7v1hkpALqK79m0Qg-6" target="Wooe7v1hkpALqK79m0Qg-2" edge="1">
          <mxGeometry relative="1" as="geometry" />
        </mxCell>
        <mxCell id="Wooe7v1hkpALqK79m0Qg-11" style="edgeStyle=orthogonalEdgeStyle;rounded=0;orthogonalLoop=1;jettySize=auto;html=1;entryX=0.292;entryY=0;entryDx=0;entryDy=0;entryPerimeter=0;endArrow=none;endFill=0;" parent="1" source="Wooe7v1hkpALqK79m0Qg-4" target="Wooe7v1hkpALqK79m0Qg-2" edge="1">
          <mxGeometry relative="1" as="geometry" />
        </mxCell>
        <mxCell id="Wooe7v1hkpALqK79m0Qg-12" style="edgeStyle=orthogonalEdgeStyle;rounded=0;orthogonalLoop=1;jettySize=auto;html=1;entryX=0.049;entryY=-0.015;entryDx=0;entryDy=0;entryPerimeter=0;endArrow=none;endFill=0;" parent="1" source="Wooe7v1hkpALqK79m0Qg-3" target="Wooe7v1hkpALqK79m0Qg-2" edge="1">
          <mxGeometry relative="1" as="geometry" />
        </mxCell>
        <mxCell id="Wooe7v1hkpALqK79m0Qg-13" value="&lt;font style=&quot;font-size: 8px;&quot;&gt;Nome&lt;/font&gt;" style="text;html=1;align=center;verticalAlign=middle;resizable=0;points=[];autosize=1;strokeColor=none;fillColor=none;" parent="1" vertex="1">
          <mxGeometry x="100" y="250" width="40" height="30" as="geometry" />
        </mxCell>
        <mxCell id="Wooe7v1hkpALqK79m0Qg-14" value="&lt;font style=&quot;font-size: 8px;&quot;&gt;Idade&lt;/font&gt;" style="text;html=1;align=center;verticalAlign=middle;resizable=0;points=[];autosize=1;strokeColor=none;fillColor=none;" parent="1" vertex="1">
          <mxGeometry x="130" y="250" width="40" height="30" as="geometry" />
        </mxCell>
        <mxCell id="Wooe7v1hkpALqK79m0Qg-15" value="&lt;span style=&quot;font-size: 8px;&quot;&gt;End.&lt;/span&gt;" style="text;html=1;align=center;verticalAlign=middle;resizable=0;points=[];autosize=1;strokeColor=none;fillColor=none;" parent="1" vertex="1">
          <mxGeometry x="155" y="250" width="40" height="30" as="geometry" />
        </mxCell>
        <mxCell id="Wooe7v1hkpALqK79m0Qg-16" value="&lt;span style=&quot;font-size: 8px;&quot;&gt;Tel.&lt;/span&gt;" style="text;html=1;align=center;verticalAlign=middle;resizable=0;points=[];autosize=1;strokeColor=none;fillColor=none;" parent="1" vertex="1">
          <mxGeometry x="180" y="250" width="40" height="30" as="geometry" />
        </mxCell>
        <mxCell id="Wooe7v1hkpALqK79m0Qg-18" value="&lt;span style=&quot;font-size: 8px;&quot;&gt;CPF&lt;/span&gt;" style="text;html=1;align=center;verticalAlign=middle;resizable=0;points=[];autosize=1;strokeColor=none;fillColor=none;" parent="1" vertex="1">
          <mxGeometry x="210" y="250" width="40" height="30" as="geometry" />
        </mxCell>
        <mxCell id="Wooe7v1hkpALqK79m0Qg-20" value="Departamento" style="rounded=0;whiteSpace=wrap;html=1;" parent="1" vertex="1">
          <mxGeometry x="120" y="560" width="120" height="40" as="geometry" />
        </mxCell>
        <mxCell id="Wooe7v1hkpALqK79m0Qg-21" value="" style="ellipse;whiteSpace=wrap;html=1;aspect=fixed;fillColor=#dae8fc;strokeColor=#6c8ebf;" parent="1" vertex="1">
          <mxGeometry x="120" y="530" width="10" height="10" as="geometry" />
        </mxCell>
        <mxCell id="Wooe7v1hkpALqK79m0Qg-23" value="" style="ellipse;whiteSpace=wrap;html=1;aspect=fixed;fillColor=#dae8fc;strokeColor=#6c8ebf;" parent="1" vertex="1">
          <mxGeometry x="200" y="530" width="10" height="10" as="geometry" />
        </mxCell>
        <mxCell id="Wooe7v1hkpALqK79m0Qg-24" value="" style="ellipse;whiteSpace=wrap;html=1;aspect=fixed;fillColor=#f8cecc;strokeColor=#b85450;" parent="1" vertex="1">
          <mxGeometry x="230" y="530" width="10" height="10" as="geometry" />
        </mxCell>
        <mxCell id="Wooe7v1hkpALqK79m0Qg-25" style="edgeStyle=orthogonalEdgeStyle;rounded=0;orthogonalLoop=1;jettySize=auto;html=1;entryX=0.5;entryY=0;entryDx=0;entryDy=0;endArrow=none;endFill=0;" parent="1" source="Wooe7v1hkpALqK79m0Qg-26" target="Wooe7v1hkpALqK79m0Qg-20" edge="1">
          <mxGeometry relative="1" as="geometry" />
        </mxCell>
        <mxCell id="Wooe7v1hkpALqK79m0Qg-26" value="" style="ellipse;whiteSpace=wrap;html=1;aspect=fixed;fillColor=#dae8fc;strokeColor=#6c8ebf;" parent="1" vertex="1">
          <mxGeometry x="175" y="530" width="10" height="10" as="geometry" />
        </mxCell>
        <mxCell id="Wooe7v1hkpALqK79m0Qg-27" style="edgeStyle=orthogonalEdgeStyle;rounded=0;orthogonalLoop=1;jettySize=auto;html=1;endArrow=none;endFill=0;" parent="1" source="Wooe7v1hkpALqK79m0Qg-23" edge="1">
          <mxGeometry relative="1" as="geometry">
            <mxPoint x="205" y="560" as="targetPoint" />
          </mxGeometry>
        </mxCell>
        <mxCell id="Wooe7v1hkpALqK79m0Qg-28" style="edgeStyle=orthogonalEdgeStyle;rounded=0;orthogonalLoop=1;jettySize=auto;html=1;entryX=0.953;entryY=-0.001;entryDx=0;entryDy=0;entryPerimeter=0;endArrow=none;endFill=0;" parent="1" source="Wooe7v1hkpALqK79m0Qg-24" target="Wooe7v1hkpALqK79m0Qg-20" edge="1">
          <mxGeometry relative="1" as="geometry" />
        </mxCell>
        <mxCell id="Wooe7v1hkpALqK79m0Qg-30" style="edgeStyle=orthogonalEdgeStyle;rounded=0;orthogonalLoop=1;jettySize=auto;html=1;entryX=0.049;entryY=-0.015;entryDx=0;entryDy=0;entryPerimeter=0;endArrow=none;endFill=0;" parent="1" source="Wooe7v1hkpALqK79m0Qg-21" target="Wooe7v1hkpALqK79m0Qg-20" edge="1">
          <mxGeometry relative="1" as="geometry" />
        </mxCell>
        <mxCell id="Wooe7v1hkpALqK79m0Qg-31" value="&lt;font style=&quot;font-size: 8px;&quot;&gt;Nome&lt;/font&gt;" style="text;html=1;align=center;verticalAlign=middle;resizable=0;points=[];autosize=1;strokeColor=none;fillColor=none;" parent="1" vertex="1">
          <mxGeometry x="105" y="500" width="40" height="30" as="geometry" />
        </mxCell>
        <mxCell id="Wooe7v1hkpALqK79m0Qg-33" value="&lt;span style=&quot;font-size: 8px;&quot;&gt;End.&lt;/span&gt;" style="text;html=1;align=center;verticalAlign=middle;resizable=0;points=[];autosize=1;strokeColor=none;fillColor=none;" parent="1" vertex="1">
          <mxGeometry x="160" y="500" width="40" height="30" as="geometry" />
        </mxCell>
        <mxCell id="Wooe7v1hkpALqK79m0Qg-34" value="&lt;span style=&quot;font-size: 8px;&quot;&gt;Tel.&lt;/span&gt;" style="text;html=1;align=center;verticalAlign=middle;resizable=0;points=[];autosize=1;strokeColor=none;fillColor=none;" parent="1" vertex="1">
          <mxGeometry x="185" y="500" width="40" height="30" as="geometry" />
        </mxCell>
        <mxCell id="Wooe7v1hkpALqK79m0Qg-35" value="&lt;span style=&quot;font-size: 8px;&quot;&gt;Codigo&lt;/span&gt;" style="text;html=1;align=center;verticalAlign=middle;resizable=0;points=[];autosize=1;strokeColor=none;fillColor=none;" parent="1" vertex="1">
          <mxGeometry x="210" y="500" width="50" height="30" as="geometry" />
        </mxCell>
        <mxCell id="Wooe7v1hkpALqK79m0Qg-36" value="Curso" style="rounded=0;whiteSpace=wrap;html=1;" parent="1" vertex="1">
          <mxGeometry x="411" y="310" width="120" height="40" as="geometry" />
        </mxCell>
        <mxCell id="Wooe7v1hkpALqK79m0Qg-37" value="" style="ellipse;whiteSpace=wrap;html=1;aspect=fixed;fillColor=#dae8fc;strokeColor=#6c8ebf;" parent="1" vertex="1">
          <mxGeometry x="411" y="280" width="10" height="10" as="geometry" />
        </mxCell>
        <mxCell id="Wooe7v1hkpALqK79m0Qg-38" value="" style="ellipse;whiteSpace=wrap;html=1;aspect=fixed;fillColor=#dae8fc;strokeColor=#6c8ebf;" parent="1" vertex="1">
          <mxGeometry x="441" y="280" width="10" height="10" as="geometry" />
        </mxCell>
        <mxCell id="Wooe7v1hkpALqK79m0Qg-39" value="" style="ellipse;whiteSpace=wrap;html=1;aspect=fixed;fillColor=#dae8fc;strokeColor=#6c8ebf;" parent="1" vertex="1">
          <mxGeometry x="491" y="280" width="10" height="10" as="geometry" />
        </mxCell>
        <mxCell id="Wooe7v1hkpALqK79m0Qg-40" value="" style="ellipse;whiteSpace=wrap;html=1;aspect=fixed;fillColor=#f8cecc;strokeColor=#b85450;" parent="1" vertex="1">
          <mxGeometry x="521" y="280" width="10" height="10" as="geometry" />
        </mxCell>
        <mxCell id="Wooe7v1hkpALqK79m0Qg-43" style="edgeStyle=orthogonalEdgeStyle;rounded=0;orthogonalLoop=1;jettySize=auto;html=1;endArrow=none;endFill=0;" parent="1" source="Wooe7v1hkpALqK79m0Qg-39" edge="1">
          <mxGeometry relative="1" as="geometry">
            <mxPoint x="496" y="310" as="targetPoint" />
          </mxGeometry>
        </mxCell>
        <mxCell id="Wooe7v1hkpALqK79m0Qg-44" style="edgeStyle=orthogonalEdgeStyle;rounded=0;orthogonalLoop=1;jettySize=auto;html=1;entryX=0.953;entryY=-0.001;entryDx=0;entryDy=0;entryPerimeter=0;endArrow=none;endFill=0;" parent="1" source="Wooe7v1hkpALqK79m0Qg-40" target="Wooe7v1hkpALqK79m0Qg-36" edge="1">
          <mxGeometry relative="1" as="geometry" />
        </mxCell>
        <mxCell id="Wooe7v1hkpALqK79m0Qg-45" style="edgeStyle=orthogonalEdgeStyle;rounded=0;orthogonalLoop=1;jettySize=auto;html=1;entryX=0.292;entryY=0;entryDx=0;entryDy=0;entryPerimeter=0;endArrow=none;endFill=0;" parent="1" source="Wooe7v1hkpALqK79m0Qg-38" target="Wooe7v1hkpALqK79m0Qg-36" edge="1">
          <mxGeometry relative="1" as="geometry" />
        </mxCell>
        <mxCell id="Wooe7v1hkpALqK79m0Qg-46" style="edgeStyle=orthogonalEdgeStyle;rounded=0;orthogonalLoop=1;jettySize=auto;html=1;entryX=0.049;entryY=-0.015;entryDx=0;entryDy=0;entryPerimeter=0;endArrow=none;endFill=0;" parent="1" source="Wooe7v1hkpALqK79m0Qg-37" target="Wooe7v1hkpALqK79m0Qg-36" edge="1">
          <mxGeometry relative="1" as="geometry" />
        </mxCell>
        <mxCell id="Wooe7v1hkpALqK79m0Qg-47" value="&lt;font style=&quot;font-size: 8px;&quot;&gt;Nome&lt;/font&gt;" style="text;html=1;align=center;verticalAlign=middle;resizable=0;points=[];autosize=1;strokeColor=none;fillColor=none;" parent="1" vertex="1">
          <mxGeometry x="396" y="250" width="40" height="30" as="geometry" />
        </mxCell>
        <mxCell id="Wooe7v1hkpALqK79m0Qg-48" value="&lt;font style=&quot;font-size: 8px;&quot;&gt;DuraÃ§Ã£o&lt;/font&gt;" style="text;html=1;align=center;verticalAlign=middle;resizable=0;points=[];autosize=1;strokeColor=none;fillColor=none;" parent="1" vertex="1">
          <mxGeometry x="421" y="250" width="50" height="30" as="geometry" />
        </mxCell>
        <mxCell id="Wooe7v1hkpALqK79m0Qg-50" value="&lt;span style=&quot;font-size: 8px;&quot;&gt;Tema&lt;/span&gt;" style="text;html=1;align=center;verticalAlign=middle;resizable=0;points=[];autosize=1;strokeColor=none;fillColor=none;" parent="1" vertex="1">
          <mxGeometry x="476" y="250" width="40" height="30" as="geometry" />
        </mxCell>
        <mxCell id="Wooe7v1hkpALqK79m0Qg-51" value="&lt;span style=&quot;font-size: 8px;&quot;&gt;N-MEC&lt;/span&gt;" style="text;html=1;align=center;verticalAlign=middle;resizable=0;points=[];autosize=1;strokeColor=none;fillColor=none;" parent="1" vertex="1">
          <mxGeometry x="501" y="250" width="50" height="30" as="geometry" />
        </mxCell>
        <mxCell id="Wooe7v1hkpALqK79m0Qg-52" value="Disciplina" style="rounded=0;whiteSpace=wrap;html=1;" parent="1" vertex="1">
          <mxGeometry x="404" y="560" width="120" height="40" as="geometry" />
        </mxCell>
        <mxCell id="Wooe7v1hkpALqK79m0Qg-53" value="" style="ellipse;whiteSpace=wrap;html=1;aspect=fixed;fillColor=#dae8fc;strokeColor=#6c8ebf;" parent="1" vertex="1">
          <mxGeometry x="404" y="530" width="10" height="10" as="geometry" />
        </mxCell>
        <mxCell id="Wooe7v1hkpALqK79m0Qg-54" value="" style="ellipse;whiteSpace=wrap;html=1;aspect=fixed;fillColor=#dae8fc;strokeColor=#6c8ebf;" parent="1" vertex="1">
          <mxGeometry x="434" y="530" width="10" height="10" as="geometry" />
        </mxCell>
        <mxCell id="Wooe7v1hkpALqK79m0Qg-56" value="" style="ellipse;whiteSpace=wrap;html=1;aspect=fixed;fillColor=#f8cecc;strokeColor=#b85450;" parent="1" vertex="1">
          <mxGeometry x="514" y="530" width="10" height="10" as="geometry" />
        </mxCell>
        <mxCell id="Wooe7v1hkpALqK79m0Qg-57" style="edgeStyle=orthogonalEdgeStyle;rounded=0;orthogonalLoop=1;jettySize=auto;html=1;entryX=0.5;entryY=0;entryDx=0;entryDy=0;endArrow=none;endFill=0;" parent="1" source="Wooe7v1hkpALqK79m0Qg-58" target="Wooe7v1hkpALqK79m0Qg-52" edge="1">
          <mxGeometry relative="1" as="geometry" />
        </mxCell>
        <mxCell id="Wooe7v1hkpALqK79m0Qg-58" value="" style="ellipse;whiteSpace=wrap;html=1;aspect=fixed;fillColor=#dae8fc;strokeColor=#6c8ebf;" parent="1" vertex="1">
          <mxGeometry x="459" y="530" width="10" height="10" as="geometry" />
        </mxCell>
        <mxCell id="Wooe7v1hkpALqK79m0Qg-60" style="edgeStyle=orthogonalEdgeStyle;rounded=0;orthogonalLoop=1;jettySize=auto;html=1;entryX=0.953;entryY=-0.001;entryDx=0;entryDy=0;entryPerimeter=0;endArrow=none;endFill=0;" parent="1" source="Wooe7v1hkpALqK79m0Qg-56" target="Wooe7v1hkpALqK79m0Qg-52" edge="1">
          <mxGeometry relative="1" as="geometry" />
        </mxCell>
        <mxCell id="Wooe7v1hkpALqK79m0Qg-61" style="edgeStyle=orthogonalEdgeStyle;rounded=0;orthogonalLoop=1;jettySize=auto;html=1;entryX=0.292;entryY=0;entryDx=0;entryDy=0;entryPerimeter=0;endArrow=none;endFill=0;" parent="1" source="Wooe7v1hkpALqK79m0Qg-54" target="Wooe7v1hkpALqK79m0Qg-52" edge="1">
          <mxGeometry relative="1" as="geometry" />
        </mxCell>
        <mxCell id="Wooe7v1hkpALqK79m0Qg-62" style="edgeStyle=orthogonalEdgeStyle;rounded=0;orthogonalLoop=1;jettySize=auto;html=1;entryX=0.049;entryY=-0.015;entryDx=0;entryDy=0;entryPerimeter=0;endArrow=none;endFill=0;" parent="1" source="Wooe7v1hkpALqK79m0Qg-53" target="Wooe7v1hkpALqK79m0Qg-52" edge="1">
          <mxGeometry relative="1" as="geometry" />
        </mxCell>
        <mxCell id="Wooe7v1hkpALqK79m0Qg-63" value="&lt;font style=&quot;font-size: 8px;&quot;&gt;Nome&lt;/font&gt;" style="text;html=1;align=center;verticalAlign=middle;resizable=0;points=[];autosize=1;strokeColor=none;fillColor=none;" parent="1" vertex="1">
          <mxGeometry x="389" y="500" width="40" height="30" as="geometry" />
        </mxCell>
        <mxCell id="Wooe7v1hkpALqK79m0Qg-64" value="&lt;font style=&quot;font-size: 8px;&quot;&gt;Prof&lt;/font&gt;" style="text;html=1;align=center;verticalAlign=middle;resizable=0;points=[];autosize=1;strokeColor=none;fillColor=none;" parent="1" vertex="1">
          <mxGeometry x="419" y="500" width="40" height="30" as="geometry" />
        </mxCell>
        <mxCell id="Wooe7v1hkpALqK79m0Qg-65" value="&lt;span style=&quot;font-size: 8px;&quot;&gt;Materia&lt;/span&gt;" style="text;html=1;align=center;verticalAlign=middle;resizable=0;points=[];autosize=1;strokeColor=none;fillColor=none;" parent="1" vertex="1">
          <mxGeometry x="439" y="500" width="50" height="30" as="geometry" />
        </mxCell>
        <mxCell id="Wooe7v1hkpALqK79m0Qg-67" value="&lt;span style=&quot;font-size: 8px;&quot;&gt;CÃ³digo&lt;/span&gt;" style="text;html=1;align=center;verticalAlign=middle;resizable=0;points=[];autosize=1;strokeColor=none;fillColor=none;" parent="1" vertex="1">
          <mxGeometry x="494" y="500" width="50" height="30" as="geometry" />
        </mxCell>
        <mxCell id="Wooe7v1hkpALqK79m0Qg-70" style="edgeStyle=orthogonalEdgeStyle;rounded=0;orthogonalLoop=1;jettySize=auto;html=1;entryX=0;entryY=0.5;entryDx=0;entryDy=0;endArrow=none;endFill=0;" parent="1" source="Wooe7v1hkpALqK79m0Qg-68" target="Wooe7v1hkpALqK79m0Qg-52" edge="1">
          <mxGeometry relative="1" as="geometry" />
        </mxCell>
        <mxCell id="Wooe7v1hkpALqK79m0Qg-68" value="possui" style="rhombus;whiteSpace=wrap;html=1;" parent="1" vertex="1">
          <mxGeometry x="279" y="560" width="80" height="40" as="geometry" />
        </mxCell>
        <mxCell id="Wooe7v1hkpALqK79m0Qg-69" style="edgeStyle=orthogonalEdgeStyle;rounded=0;orthogonalLoop=1;jettySize=auto;html=1;entryX=1;entryY=0.5;entryDx=0;entryDy=0;endArrow=none;endFill=0;" parent="1" source="Wooe7v1hkpALqK79m0Qg-68" target="Wooe7v1hkpALqK79m0Qg-20" edge="1">
          <mxGeometry relative="1" as="geometry" />
        </mxCell>
        <mxCell id="Wooe7v1hkpALqK79m0Qg-71" style="edgeStyle=orthogonalEdgeStyle;rounded=0;orthogonalLoop=1;jettySize=auto;html=1;endArrow=none;endFill=0;" parent="1" source="Wooe7v1hkpALqK79m0Qg-72" target="Wooe7v1hkpALqK79m0Qg-36" edge="1">
          <mxGeometry relative="1" as="geometry">
            <mxPoint x="391" y="330" as="targetPoint" />
          </mxGeometry>
        </mxCell>
        <mxCell id="Wooe7v1hkpALqK79m0Qg-72" value="matricula" style="rhombus;whiteSpace=wrap;html=1;" parent="1" vertex="1">
          <mxGeometry x="282" y="310" width="80" height="40" as="geometry" />
        </mxCell>
        <mxCell id="g7VYItSPCgf-Q1t-3pjP-1" value="&lt;b&gt;&lt;font style=&quot;font-size: 10px;&quot;&gt;0,n&lt;/font&gt;&lt;/b&gt;" style="text;html=1;align=center;verticalAlign=middle;resizable=0;points=[];autosize=1;strokeColor=none;fillColor=none;" vertex="1" parent="1">
          <mxGeometry x="364" y="555" width="40" height="30" as="geometry" />
        </mxCell>
        <mxCell id="g7VYItSPCgf-Q1t-3pjP-2" value="&lt;b style=&quot;color: rgb(0, 0, 0); font-family: Helvetica; font-size: 12px; font-style: normal; font-variant-ligatures: normal; font-variant-caps: normal; letter-spacing: normal; orphans: 2; text-align: center; text-indent: 0px; text-transform: none; widows: 2; word-spacing: 0px; -webkit-text-stroke-width: 0px; white-space: nowrap; background-color: rgb(251, 251, 251); text-decoration-thickness: initial; text-decoration-style: initial; text-decoration-color: initial;&quot;&gt;&lt;font style=&quot;font-size: 10px;&quot;&gt;1,1&lt;/font&gt;&lt;/b&gt;" style="text;whiteSpace=wrap;html=1;" vertex="1" parent="1">
          <mxGeometry x="250" y="555" width="50" height="40" as="geometry" />
        </mxCell>
        <mxCell id="g7VYItSPCgf-Q1t-3pjP-3" value="&lt;b style=&quot;color: rgb(0, 0, 0); font-family: Helvetica; font-size: 12px; font-style: normal; font-variant-ligatures: normal; font-variant-caps: normal; letter-spacing: normal; orphans: 2; text-align: center; text-indent: 0px; text-transform: none; widows: 2; word-spacing: 0px; -webkit-text-stroke-width: 0px; white-space: nowrap; background-color: rgb(251, 251, 251); text-decoration-thickness: initial; text-decoration-style: initial; text-decoration-color: initial;&quot;&gt;&lt;font style=&quot;font-size: 10px;&quot;&gt;1,1&lt;/font&gt;&lt;/b&gt;" style="text;whiteSpace=wrap;html=1;" vertex="1" parent="1">
          <mxGeometry x="386" y="300" width="50" height="40" as="geometry" />
        </mxCell>
        <mxCell id="g7VYItSPCgf-Q1t-3pjP-5" value="&lt;b&gt;&lt;font style=&quot;font-size: 10px;&quot;&gt;0,n&lt;/font&gt;&lt;/b&gt;" style="text;html=1;align=center;verticalAlign=middle;resizable=0;points=[];autosize=1;strokeColor=none;fillColor=none;" vertex="1" parent="1">
          <mxGeometry x="238" y="300" width="40" height="30" as="geometry" />
        </mxCell>
        <mxCell id="g7VYItSPCgf-Q1t-3pjP-11" style="edgeStyle=orthogonalEdgeStyle;rounded=0;orthogonalLoop=1;jettySize=auto;html=1;entryX=1;entryY=0.5;entryDx=0;entryDy=0;endArrow=none;endFill=0;" edge="1" parent="1" source="g7VYItSPCgf-Q1t-3pjP-6" target="Wooe7v1hkpALqK79m0Qg-36">
          <mxGeometry relative="1" as="geometry">
            <mxPoint x="600" y="320" as="targetPoint" />
            <Array as="points">
              <mxPoint x="600" y="330" />
            </Array>
          </mxGeometry>
        </mxCell>
        <mxCell id="g7VYItSPCgf-Q1t-3pjP-12" style="edgeStyle=orthogonalEdgeStyle;rounded=0;orthogonalLoop=1;jettySize=auto;html=1;entryX=1;entryY=0.5;entryDx=0;entryDy=0;endArrow=none;endFill=0;" edge="1" parent="1" source="g7VYItSPCgf-Q1t-3pjP-6" target="Wooe7v1hkpALqK79m0Qg-52">
          <mxGeometry relative="1" as="geometry">
            <mxPoint x="580" y="580" as="targetPoint" />
            <Array as="points">
              <mxPoint x="600" y="580" />
            </Array>
          </mxGeometry>
        </mxCell>
        <mxCell id="g7VYItSPCgf-Q1t-3pjP-6" value="contem" style="rhombus;whiteSpace=wrap;html=1;" vertex="1" parent="1">
          <mxGeometry x="561" y="430" width="80" height="40" as="geometry" />
        </mxCell>
        <mxCell id="g7VYItSPCgf-Q1t-3pjP-13" value="&lt;b&gt;&lt;font style=&quot;font-size: 10px;&quot;&gt;0,n&lt;/font&gt;&lt;/b&gt;" style="text;html=1;align=center;verticalAlign=middle;resizable=0;points=[];autosize=1;strokeColor=none;fillColor=none;" vertex="1" parent="1">
          <mxGeometry x="524" y="305" width="40" height="30" as="geometry" />
        </mxCell>
        <mxCell id="g7VYItSPCgf-Q1t-3pjP-14" value="&lt;b&gt;&lt;font style=&quot;font-size: 10px;&quot;&gt;0,n&lt;/font&gt;&lt;/b&gt;" style="text;html=1;align=center;verticalAlign=middle;resizable=0;points=[];autosize=1;strokeColor=none;fillColor=none;" vertex="1" parent="1">
          <mxGeometry x="521" y="555" width="40" height="30" as="geometry" />
        </mxCell>
        <mxCell id="g7VYItSPCgf-Q1t-3pjP-16" style="edgeStyle=orthogonalEdgeStyle;rounded=0;orthogonalLoop=1;jettySize=auto;html=1;entryX=0.053;entryY=1.058;entryDx=0;entryDy=0;entryPerimeter=0;exitX=0.024;exitY=0.507;exitDx=0;exitDy=0;exitPerimeter=0;endArrow=none;endFill=0;" edge="1" parent="1" source="g7VYItSPCgf-Q1t-3pjP-15">
          <mxGeometry relative="1" as="geometry">
            <mxPoint x="404.36" y="599.9999999999999" as="targetPoint" />
            <mxPoint x="420" y="677.68" as="sourcePoint" />
            <Array as="points">
              <mxPoint x="404" y="680" />
              <mxPoint x="404" y="678" />
              <mxPoint x="404" y="678" />
            </Array>
          </mxGeometry>
        </mxCell>
        <mxCell id="g7VYItSPCgf-Q1t-3pjP-17" style="edgeStyle=orthogonalEdgeStyle;rounded=0;orthogonalLoop=1;jettySize=auto;html=1;exitX=1;exitY=0.5;exitDx=0;exitDy=0;entryX=1;entryY=1;entryDx=0;entryDy=0;endArrow=none;endFill=0;" edge="1" parent="1" source="g7VYItSPCgf-Q1t-3pjP-15" target="Wooe7v1hkpALqK79m0Qg-52">
          <mxGeometry relative="1" as="geometry">
            <mxPoint x="520" y="679.952380952381" as="targetPoint" />
            <Array as="points">
              <mxPoint x="524" y="680" />
            </Array>
          </mxGeometry>
        </mxCell>
        <mxCell id="g7VYItSPCgf-Q1t-3pjP-15" value="requisita" style="rhombus;whiteSpace=wrap;html=1;" vertex="1" parent="1">
          <mxGeometry x="421" y="660" width="91" height="40" as="geometry" />
        </mxCell>
        <mxCell id="g7VYItSPCgf-Q1t-3pjP-18" value="&lt;b&gt;&lt;font style=&quot;font-size: 10px;&quot;&gt;0,n&lt;/font&gt;&lt;/b&gt;" style="text;html=1;align=center;verticalAlign=middle;resizable=0;points=[];autosize=1;strokeColor=none;fillColor=none;" vertex="1" parent="1">
          <mxGeometry x="484" y="600" width="40" height="30" as="geometry" />
        </mxCell>
        <mxCell id="g7VYItSPCgf-Q1t-3pjP-19" value="&lt;b&gt;&lt;font style=&quot;font-size: 10px;&quot;&gt;0,n&lt;/font&gt;&lt;/b&gt;" style="text;html=1;align=center;verticalAlign=middle;resizable=0;points=[];autosize=1;strokeColor=none;fillColor=none;" vertex="1" parent="1">
          <mxGeometry x="404" y="600" width="40" height="30" as="geometry" />
        </mxCell>
      </root>
    </mxGraphModel>
  </diagram>
</mxfile>
